<svg version="1.2" baseProfile="tiny-ps" xmlns="http://www.w3.org/2000/svg" viewBox="0 0 227 317" width="227" height="317">
	<title>L</title>
	<style>
		tspan { white-space:pre }
		.shp0 { fill: #a9cf54 } 
		.shp1 { fill: #627d2a } 
		.shp2 { fill: #92b83d } 
	</style>
	<path id="Layer" class="shp0" d="M63.44 12.85C63.89 20.4 64.2 27.95 64.36 35.51C64.53 43.07 64.56 50.63 64.45 58.19C64.34 65.75 64.09 73.31 63.7 80.86C63.31 88.41 62.78 95.95 62.11 103.48L94.34 103.93C93.89 96.38 93.58 88.83 93.41 81.27C93.23 73.72 93.2 66.15 93.31 58.6C93.42 51.04 93.66 43.48 94.05 35.93C94.44 28.38 94.96 20.84 95.63 13.31L63.44 12.85Z" />
	<path id="Layer" class="shp0" d="M62.11 105.19C62.56 112.74 62.88 120.29 63.05 127.85C63.22 135.4 63.25 142.97 63.15 150.52C63.04 158.08 62.79 165.64 62.4 173.19C62.01 180.74 61.49 188.28 60.82 195.81L93.05 196.27C92.6 188.72 92.29 181.17 92.12 173.61C91.95 166.06 91.92 158.5 92.03 150.94C92.14 143.38 92.39 135.83 92.78 128.28C93.16 120.73 93.69 113.19 94.36 105.66L62.11 105.19Z" />
	<path id="Layer" class="shp0" d="M60.81 197.75C61.26 205.3 61.57 212.85 61.75 220.41C61.92 227.97 61.95 235.53 61.85 243.09C61.74 250.65 61.49 258.21 61.11 265.76C60.72 273.31 60.19 280.85 59.53 288.38L91.76 288.84C91.31 281.29 91 273.74 90.82 266.18C90.65 258.62 90.62 251.06 90.72 243.5C90.83 235.94 91.08 228.38 91.46 220.83C91.85 213.28 92.38 205.74 93.04 198.21L60.81 197.75Z" />
	<path id="Layer" class="shp1" d="M37.32 178.48C18.44 171.73 0 175 0 175C0 175 12.2 189.21 31.11 195.95C50.02 202.69 56.37 195.12 56.37 195.12C56.37 195.12 56.22 185.22 37.32 178.48Z" />
	<path id="Layer" class="shp1" d="M35.11 159.85C35.55 161.63 36.1 163.38 36.75 165.09C37.39 166.81 38.14 168.48 38.98 170.11C39.82 171.74 40.76 173.31 41.78 174.83C42.8 176.35 43.92 177.81 45.11 179.2C52.85 187.91 58.21 185.83 58.21 185.83C58.21 185.83 60.91 180.76 53.21 172.04C51.97 170.69 50.64 169.41 49.25 168.22C47.86 167.02 46.4 165.91 44.87 164.88C43.35 163.86 41.77 162.92 40.14 162.08C38.51 161.24 36.83 160.5 35.11 159.85L35.11 159.85Z" />
	<path id="Layer" class="shp1" d="M37.54 200.29C35.74 200.61 33.95 201.04 32.2 201.56C30.44 202.09 28.72 202.72 27.04 203.45C25.35 204.18 23.72 205 22.13 205.92C20.54 206.84 19.01 207.84 17.54 208.94C19.28 209.52 21.05 210.01 22.84 210.39C24.63 210.76 26.44 211.04 28.27 211.21C30.09 211.37 31.93 211.44 33.76 211.39C35.59 211.35 37.42 211.2 39.23 210.94C50.74 209.09 51.86 203.47 51.86 203.47C51.86 203.47 49.05 198.46 37.54 200.29Z" />
	<path id="Layer" class="shp1" d="M117.59 85.73C99.22 93.8 99.8 103.73 99.8 103.73C99.8 103.73 106.68 110.83 125.05 102.73C143.42 94.63 154.57 79.66 154.57 79.66C154.57 79.66 135.96 77.66 117.59 85.73Z" />
	<path id="Layer" class="shp1" d="M104.85 111.66C104.85 111.66 106.37 117.2 117.98 118.22C119.81 118.35 121.64 118.37 123.47 118.29C125.3 118.2 127.12 118.01 128.93 117.71C130.74 117.42 132.53 117.02 134.29 116.51C136.05 116.01 137.78 115.4 139.47 114.7C137.93 113.71 136.33 112.81 134.69 112.01C133.04 111.21 131.35 110.5 129.62 109.89C127.89 109.28 126.13 108.78 124.35 108.37C122.56 107.97 120.75 107.67 118.93 107.48C107.31 106.49 104.85 111.66 104.85 111.66Z" />
	<path id="Layer" class="shp1" d="M109.91 87C111 85.53 112 84 112.91 82.41C113.82 80.82 114.64 79.18 115.36 77.5C116.09 75.82 116.71 74.09 117.23 72.34C117.75 70.59 118.17 68.8 118.49 67C116.83 67.77 115.21 68.63 113.65 69.59C112.09 70.55 110.59 71.6 109.15 72.73C107.71 73.86 106.33 75.07 105.03 76.36C103.73 77.65 102.51 79.02 101.37 80.45C94.28 89.69 97.37 94.56 97.37 94.56C97.37 94.56 102.81 96.24 109.91 87Z" />
	<path id="Layer" class="shp0" d="M59.67 316.66C65.66 316.12 71.66 315.7 77.67 315.42C83.68 315.14 89.7 314.99 95.71 314.97C101.73 314.94 107.75 315.05 113.76 315.29C119.77 315.53 125.77 315.9 131.77 316.4L131.66 286.4C125.67 286.94 119.67 287.35 113.66 287.63C107.65 287.92 101.63 288.07 95.62 288.09C89.6 288.11 83.58 288 77.57 287.76C71.56 287.53 65.56 287.16 59.56 286.66L59.67 316.66L59.67 316.66Z" />
	<path id="Layer" class="shp0" d="M132.72 316.38C138.71 315.84 144.71 315.42 150.72 315.14C156.73 314.86 162.75 314.71 168.76 314.69C174.78 314.66 180.8 314.77 186.81 315.01C192.82 315.25 198.82 315.62 204.82 316.12L204.71 286.12C198.72 286.66 192.72 287.07 186.71 287.35C180.7 287.64 174.68 287.79 168.67 287.81C162.65 287.83 156.63 287.72 150.62 287.48C144.61 287.25 138.61 286.88 132.61 286.38L132.72 316.38Z" />
	<path id="Layer" class="shp1" d="M151.91 264.96C162.1 247.68 162.38 228.96 162.38 228.96C162.38 228.96 146.13 238.26 135.94 255.53C125.75 272.8 131.94 280.53 131.94 280.53C131.94 280.53 141.72 282.24 151.91 264.96Z" />
	<path id="Layer" class="shp1" d="M170.63 266.29C168.8 266.39 166.98 266.59 165.17 266.9C163.37 267.21 161.58 267.63 159.83 268.14C158.07 268.66 156.34 269.28 154.66 270C152.97 270.72 151.33 271.53 149.74 272.44C139.74 278.44 140.74 284.05 140.74 284.05C140.74 284.05 145.21 287.66 155.23 281.71C156.79 280.75 158.29 279.69 159.73 278.55C161.16 277.41 162.53 276.19 163.83 274.9C165.12 273.6 166.34 272.23 167.48 270.79C168.61 269.35 169.67 267.85 170.63 266.29L170.63 266.29Z" />
	<path id="Layer" class="shp1" d="M130.45 261.06C130.47 259.23 130.39 257.4 130.21 255.57C130.02 253.75 129.73 251.94 129.33 250.16C128.93 248.37 128.43 246.6 127.83 244.87C127.23 243.14 126.53 241.45 125.73 239.8C124.83 241.4 124.03 243.04 123.32 244.73C122.62 246.42 122.01 248.15 121.51 249.91C121 251.67 120.6 253.46 120.3 255.26C120.01 257.07 119.82 258.89 119.73 260.72C119.37 272.37 124.73 274.53 124.73 274.53C124.73 274.53 130.11 272.66 130.45 261.06Z" />
	<path id="Layer" class="shp2" d="M73.17 12.99L63.31 12.88C63.76 20.48 64.07 28.09 64.26 35.7C64.44 43.32 64.49 50.93 64.4 58.55C64.32 66.16 64.1 73.77 63.76 81.38C63.41 88.99 62.92 96.59 62.31 104.18L71.76 105.38" />
	<path id="Layer" class="shp2" d="M71.45 106.42L61.99 105.22C62.44 112.82 62.76 120.43 62.94 128.04C63.12 135.66 63.17 143.27 63.09 150.89C63 158.5 62.79 166.11 62.44 173.72C62.09 181.33 61.61 188.93 60.99 196.52L70.45 197.72" />
	<path id="Layer" class="shp2" d="M70.33 195.96L60.87 194.76C61.32 202.36 61.63 209.97 61.82 217.59C62 225.2 62.05 232.82 61.96 240.43C61.88 248.05 61.66 255.66 61.32 263.27C60.97 270.88 60.48 278.48 59.87 286.07L69.33 287.27" />
	<path id="Layer" class="shp1" d="M63.34 193.11L90.34 192.76C90.69 192.76 91.03 192.82 91.35 192.95C91.68 193.08 91.97 193.27 92.22 193.51C92.47 193.75 92.67 194.04 92.8 194.36C92.94 194.68 93.01 195.02 93.02 195.37L93.02 197.86C93.02 198.21 92.96 198.55 92.83 198.87C92.7 199.2 92.51 199.49 92.26 199.74C92.02 199.99 91.73 200.18 91.41 200.32C91.09 200.46 90.75 200.53 90.4 200.53L63.4 200.88C63.05 200.88 62.71 200.82 62.39 200.69C62.06 200.56 61.77 200.37 61.52 200.13C61.27 199.89 61.07 199.6 60.94 199.28C60.8 198.96 60.73 198.62 60.72 198.27L60.72 195.79C60.71 195.44 60.78 195.09 60.9 194.77C61.03 194.45 61.23 194.15 61.47 193.9C61.71 193.65 62 193.45 62.32 193.32C62.65 193.18 62.99 193.11 63.34 193.11Z" />
	<path id="Layer" class="shp1" d="M64.65 100.52L91.65 100.17C92 100.17 92.34 100.23 92.66 100.36C92.99 100.49 93.28 100.68 93.53 100.92C93.78 101.17 93.98 101.45 94.12 101.77C94.26 102.09 94.33 102.43 94.34 102.78L94.34 105.27C94.34 105.62 94.28 105.96 94.15 106.28C94.02 106.61 93.83 106.9 93.58 107.15C93.34 107.4 93.05 107.59 92.73 107.73C92.41 107.87 92.07 107.94 91.72 107.94L64.72 108.29C64.38 108.28 64.04 108.21 63.72 108.08C63.41 107.94 63.12 107.75 62.88 107.51C62.64 107.26 62.45 106.98 62.31 106.66C62.18 106.34 62.11 106 62.11 105.66L62.11 103.17C62.11 102.83 62.17 102.5 62.3 102.18C62.43 101.87 62.61 101.58 62.85 101.33C63.08 101.09 63.36 100.89 63.67 100.75C63.98 100.61 64.31 100.53 64.65 100.52L64.65 100.52Z" />
	<path id="Layer" class="shp1" d="M135.88 288.86L135.79 314C135.79 314.32 135.72 314.64 135.6 314.94C135.47 315.24 135.29 315.51 135.06 315.74C134.83 315.97 134.56 316.15 134.26 316.27C133.96 316.4 133.64 316.46 133.32 316.46L131.01 316.46C130.69 316.46 130.37 316.4 130.07 316.27C129.77 316.15 129.5 315.96 129.27 315.74C129.04 315.51 128.86 315.23 128.74 314.93C128.62 314.63 128.56 314.31 128.56 313.99L128.65 288.85C128.65 288.53 128.72 288.21 128.84 287.91C128.97 287.61 129.15 287.34 129.38 287.11C129.61 286.88 129.88 286.7 130.18 286.58C130.48 286.45 130.8 286.39 131.12 286.39L133.43 286.39C133.75 286.39 134.07 286.45 134.37 286.58C134.67 286.7 134.94 286.89 135.17 287.11C135.4 287.34 135.58 287.62 135.7 287.92C135.82 288.22 135.88 288.54 135.88 288.86Z" />
	<path id="Layer" class="shp2" d="M59.65 316.66L69.36 315.93C68.97 313.53 68.68 311.11 68.49 308.68C68.29 306.26 68.2 303.82 68.2 301.39C68.2 298.96 68.29 296.52 68.49 294.1C68.68 291.67 68.97 289.25 69.36 286.85L59.65 286.85" />
	<path id="Layer" class="shp0" d="M335.44 26.38C357.66 35.55 364.55 40.18 378.55 49.74C385.83 54.74 388.88 65.16 404.23 114.06L372.59 120.13C365.21 90.22 362.96 82.22 335.77 72.69" />
	<path id="Layer" class="shp0" d="M297.35 312.23C262.28 275.41 261.88 271.33 256.78 258.7C248 236.98 248.03 232.7 242.99 198.03L275.87 197.27C279.87 243.15 280.77 242.48 305.93 265.27L297.35 312.23Z" />
	<path id="Layer" class="shp2" d="M299.92 298.17L297.35 312.23C262.28 275.41 261.88 271.33 256.78 258.7C248 236.98 248.03 232.7 242.99 198.03L252.35 197.81C259.71 247.43 256.78 258.71 299.92 298.17Z" />
	<path id="Layer" class="shp0" d="M355.75 248.66C343.55 266.83 329.99 272.15 306.43 265.61L297.85 312.61C346.11 306.19 343.22 305.3 383.46 280.2L355.75 248.66Z" />
	<path id="Layer" class="shp0" d="M367.33 177.44C352.55 181.78 331.92 180.29 325.45 177.44L319.71 206.73C335.94 203.61 353.71 203.82 361.82 206.73L367.33 177.44Z" />
	<path id="Layer" class="shp0" d="M368.5 177.94L394.78 177.94C395.19 177.94 395.58 178.03 395.95 178.21C396.31 178.39 396.62 178.66 396.87 178.98C397.11 179.31 397.27 179.68 397.34 180.08C397.41 180.48 397.38 180.89 397.26 181.28C389.69 205.47 384.76 228.89 383.6 273.47C383.58 273.99 383.41 274.5 383.11 274.92C382.8 275.34 382.37 275.66 381.88 275.84C381.39 276.01 380.86 276.04 380.35 275.91C379.85 275.78 379.39 275.5 379.05 275.11L355.75 248.8C366.33 199.22 366.94 195.34 365.94 180.05C365.94 180.06 367.24 177.94 368.5 177.94Z" />
	<path id="Layer" class="shp0" d="M286.05 124.57L286.05 124.57C280.7 136.33 275.42 173.25 276.54 196.73L243.66 197.49C249.45 170.83 255.87 111.94 255.87 111.94" />
	<path id="Layer" class="shp2" d="M263.5 114.99L255.21 111.94C252.65 139.83 249.07 169.85 243 197.49L252.31 197.41" />
</svg>